<svg width="40" height="40" viewBox="0 0 40 40" fill="none" xmlns="http://www.w3.org/2000/svg">
<rect width="40" height="40" fill="#EEEEEE"/>
<g clip-path="url(#clip0_114_15)">
<path d="M31.1114 14.657C31.128 14.8963 31.128 15.1357 31.128 15.3772C31.128 22.7371 25.495 31.2254 15.1947 31.2254V31.221C12.1519 31.2254 9.17239 30.3585 6.6109 28.7239C7.05334 28.7768 7.498 28.8033 7.94376 28.8044C10.4653 28.8066 12.9148 27.9651 14.8986 26.4155C12.5023 26.3702 10.401 24.8162 9.66695 22.5474C10.5064 22.7085 11.3713 22.6754 12.1952 22.4515C9.58268 21.9265 7.70314 19.6434 7.70314 16.9919V16.9213C8.48157 17.3526 9.35314 17.5919 10.2447 17.6184C7.78409 15.9827 7.02562 12.7268 8.51151 10.1813C11.3547 13.661 15.5495 15.7765 20.0526 16.0004C19.6013 14.0658 20.2179 12.0386 21.6727 10.6787C23.9281 8.56986 27.4754 8.67795 29.5956 10.9202C30.8497 10.6743 32.0517 10.2166 33.1517 9.56802C32.7337 10.8574 31.8588 11.9526 30.69 12.6485C31.8 12.5184 32.8845 12.2228 33.9058 11.7717C33.1539 12.8923 32.207 13.8684 31.1114 14.657Z" fill="#1D9BF0"/>
</g>
<defs>
<clipPath id="clip0_114_15">
<rect width="27.5" height="22.5" fill="white" transform="translate(6.5 9)"/>
</clipPath>
</defs>
</svg>
