<svg width="40" height="40" viewBox="0 0 40 40" fill="none" xmlns="http://www.w3.org/2000/svg">
<rect width="40" height="40" fill="url(#paint0_linear_104_12)"/>
<path fill-rule="evenodd" clip-rule="evenodd" d="M25.5 17.5C25.5 18.4002 25.2837 19.2499 24.9003 20H24.916C25.6876 18.2341 27.4497 17 29.5 17C32.2614 17 34.5 19.2386 34.5 22C34.5 24.7614 32.2614 27 29.5 27C29.4086 27 29.3179 26.9976 29.2277 26.9927C29.1524 26.9975 29.0765 27 29 27H11.5C11.3457 27 11.1938 26.99 11.0448 26.9707C10.8658 26.9901 10.6841 27 10.5 27C7.73858 27 5.5 24.7614 5.5 22C5.5 19.2386 7.73858 17 10.5 17C12.5503 17 14.3124 18.2341 15.084 20H15.0997C14.7163 19.2499 14.5 18.4002 14.5 17.5C14.5 14.4624 16.9624 12 20 12C23.0376 12 25.5 14.4624 25.5 17.5Z" fill="white"/>
<defs>
<linearGradient id="paint0_linear_104_12" x1="20" y1="0" x2="20" y2="40" gradientUnits="userSpaceOnUse">
<stop stop-color="#2961F5"/>
<stop offset="1" stop-color="#3F8EF6"/>
</linearGradient>
</defs>
</svg>
