<svg width="14" height="14" viewBox="0 0 14 14" fill="none" xmlns="http://www.w3.org/2000/svg">
<path d="M5.96875 9.92383H4.65625C4.28711 9.92383 4 9.63672 4 9.26758V4.45508C4 4.09961 4.28711 3.79883 4.65625 3.79883H5.96875C6.32422 3.79883 6.625 4.09961 6.625 4.45508V9.26758C6.625 9.63672 6.32422 9.92383 5.96875 9.92383ZM10.125 9.26758C10.125 9.63672 9.82422 9.92383 9.46875 9.92383H8.15625C7.78711 9.92383 7.5 9.63672 7.5 9.26758V4.45508C7.5 4.09961 7.78711 3.79883 8.15625 3.79883H9.46875C9.82422 3.79883 10.125 4.09961 10.125 4.45508V9.26758Z" fill="white"/>
</svg>
