<svg width="20" height="20" viewBox="0 0 20 20" fill="none" xmlns="http://www.w3.org/2000/svg">
<path d="M14.7656 5.25C14.8828 5.25 15 5.36719 15 5.48438V9.41016C15 9.52734 14.8828 9.64453 14.7656 9.64453H10.8594C10.7227 9.64453 10.625 9.52734 10.625 9.41016V8.47266H10.6055C10.6055 8.35547 10.7227 8.23828 10.8399 8.23828C10.8594 8.23828 10.8594 8.23828 10.8594 8.23828L12.8516 8.33594C12.2266 7.41797 11.1719 6.8125 10 6.8125C8.08595 6.8125 6.56251 8.35547 6.56251 10.25C6.56251 12.1641 8.08595 13.6875 10 13.6875C10.8594 13.6875 11.6602 13.375 12.2656 12.8477C12.3047 12.8086 12.3633 12.7891 12.4219 12.7891C12.4805 12.7891 12.5391 12.8086 12.5781 12.8477L13.2422 13.5117C13.2813 13.5508 13.3203 13.6094 13.3203 13.6875C13.3203 13.7461 13.2813 13.8047 13.2422 13.8633C12.3828 14.625 11.25 15.0938 10 15.0938C7.32423 15.0938 5.15626 12.9453 5.15626 10.2695C5.13673 7.59375 7.32423 5.40625 10 5.40625C11.4649 5.40625 12.793 6.07031 13.6719 7.125L13.5938 5.50391C13.5938 5.50391 13.5938 5.50391 13.5938 5.48438C13.5938 5.36719 13.7109 5.25 13.8281 5.25H14.7656Z" fill="white"/>
</svg>
