<svg width="16" height="16" viewBox="0 0 16 16" fill="none" xmlns="http://www.w3.org/2000/svg">
<path d="M13.5 10C13.75 10 14 10.25 14 10.5V14.5C14 15.3438 13.3125 16 12.5 16H1.5C0.65625 16 0 15.3438 0 14.5V3.5C0 2.6875 0.65625 2 1.5 2H6.5C6.75 2 7 2.25 7 2.5V3.5C7 3.78125 6.75 4 6.5 4H2V14H12V10.5C12 10.25 12.2188 10 12.5 10H13.5ZM15.25 0C15.6562 0 16 0.34375 16 0.75V4.75C16 5.4375 15.1875 5.75 14.7188 5.28125L13.5938 4.1875L5.96875 11.7812C5.84375 11.9375 5.65625 12.0312 5.4375 12.0312C5.25 12.0312 5.0625 11.9375 4.90625 11.7812L4.21875 11.0938C4.0625 10.9688 3.96875 10.7812 3.96875 10.5625C3.96875 10.3438 4.0625 10.1562 4.21875 10.0312L11.8125 2.40625L10.7188 1.28125C10.2188 0.8125 10.5625 0 11.25 0H15.25Z" fill="#0085FF"/>
</svg>
