<svg width="40" height="40" viewBox="0 0 40 40" fill="none" xmlns="http://www.w3.org/2000/svg">
<rect width="40" height="40" fill="#F5F5F5"/>
<path d="M22.8667 6.46666C21.6534 6.58666 20.7667 6.83999 20.48 7.15333C20.3267 7.31999 20.2334 7.59999 20.1334 8.17333C20.0267 8.79999 19.6134 9.77999 18.5 12.0667C17.3667 14.4 17.2334 14.7067 16.66 16.2333C16.14 17.62 15.3334 19.2533 14.7467 20.1333C13.26 22.34 10.9934 24.5333 8.02003 26.64C6.09336 28.0067 5.14003 29.2667 5.13336 30.46C5.13336 31.2533 5.5467 31.7867 6.2067 31.8533C6.9067 31.92 7.56003 31.5333 9.72003 29.7733C10.3667 29.2467 11.0667 28.68 11.2667 28.52C12 27.9267 13.24 26.4133 16.9667 21.5667C20.7334 16.66 21.8467 15.2867 22.82 14.3467C23.66 13.54 23.8 13.6667 23.8 15.26C23.8 16.9333 23.6667 20.6133 23.5934 21.1C23.3734 22.4467 22.5534 24.12 21.2534 25.8467C20.44 26.9267 19.7134 27.7533 18.2 29.3C16.84 30.6933 16.3 31.3667 16.1 31.9333C15.5067 33.6067 17.6467 33.8533 19.56 32.3333C20.3934 31.6733 20.58 31.4 23 27.4333C25.4267 23.4467 28.54 18.1933 28.9267 17.4133C30.6334 14.0067 31.86 10.28 31.8867 8.43999C31.8934 8.13999 31.8734 7.83333 31.84 7.74666C31.6867 7.29333 29.64 6.78666 26.9 6.53333C25.84 6.43333 23.6067 6.39999 22.8667 6.46666Z" fill="#999999"/>
</svg>
