<svg width="64" height="20" viewBox="0 0 64 20" fill="none" xmlns="http://www.w3.org/2000/svg">
<g filter="url(#filter0_i_123_14)">
<rect width="64" height="20" rx="10" fill="#B8B8B8"/>
</g>
<rect x="1" y="1" width="42" height="18" rx="9" fill="#0085FF"/>
<path d="M20.0645 9.79102V10.2627C20.0645 11.0192 19.9619 11.6982 19.7568 12.2998C19.5518 12.9014 19.2624 13.4141 18.8887 13.8379C18.515 14.2572 18.0684 14.5785 17.5488 14.8018C17.0339 15.0251 16.4619 15.1367 15.833 15.1367C15.2087 15.1367 14.6367 15.0251 14.1172 14.8018C13.6022 14.5785 13.1556 14.2572 12.7773 13.8379C12.3991 13.4141 12.1051 12.9014 11.8955 12.2998C11.6904 11.6982 11.5879 11.0192 11.5879 10.2627V9.79102C11.5879 9.02995 11.6904 8.35091 11.8955 7.75391C12.1006 7.15234 12.39 6.63965 12.7637 6.21582C13.1419 5.79199 13.5885 5.46842 14.1035 5.24512C14.623 5.02181 15.195 4.91016 15.8193 4.91016C16.4482 4.91016 17.0202 5.02181 17.5352 5.24512C18.0547 5.46842 18.5013 5.79199 18.875 6.21582C19.2533 6.63965 19.5449 7.15234 19.75 7.75391C19.9596 8.35091 20.0645 9.02995 20.0645 9.79102ZM17.9932 10.2627V9.77734C17.9932 9.2487 17.9453 8.78385 17.8496 8.38281C17.7539 7.98177 17.6126 7.64453 17.4258 7.37109C17.2389 7.09766 17.0111 6.89258 16.7422 6.75586C16.4733 6.61458 16.1657 6.54395 15.8193 6.54395C15.473 6.54395 15.1654 6.61458 14.8965 6.75586C14.6322 6.89258 14.4066 7.09766 14.2197 7.37109C14.0374 7.64453 13.8984 7.98177 13.8027 8.38281C13.707 8.78385 13.6592 9.2487 13.6592 9.77734V10.2627C13.6592 10.7868 13.707 11.2516 13.8027 11.6572C13.8984 12.0583 14.0397 12.3978 14.2266 12.6758C14.4134 12.9492 14.6413 13.1566 14.9102 13.2979C15.179 13.4391 15.4867 13.5098 15.833 13.5098C16.1794 13.5098 16.487 13.4391 16.7559 13.2979C17.0247 13.1566 17.2503 12.9492 17.4326 12.6758C17.6149 12.3978 17.7539 12.0583 17.8496 11.6572C17.9453 11.2516 17.9932 10.7868 17.9932 10.2627ZM29.6416 5.04688V15H27.5908L23.5918 8.32812V15H21.541V5.04688H23.5918L27.5977 11.7256V5.04688H29.6416Z" fill="white"/>
<defs>
<filter id="filter0_i_123_14" x="0" y="0" width="64" height="22" filterUnits="userSpaceOnUse" color-interpolation-filters="sRGB">
<feFlood flood-opacity="0" result="BackgroundImageFix"/>
<feBlend mode="normal" in="SourceGraphic" in2="BackgroundImageFix" result="shape"/>
<feColorMatrix in="SourceAlpha" type="matrix" values="0 0 0 0 0 0 0 0 0 0 0 0 0 0 0 0 0 0 127 0" result="hardAlpha"/>
<feOffset dy="2"/>
<feGaussianBlur stdDeviation="1"/>
<feComposite in2="hardAlpha" operator="arithmetic" k2="-1" k3="1"/>
<feColorMatrix type="matrix" values="0 0 0 0 0 0 0 0 0 0 0 0 0 0 0 0 0 0 0.25 0"/>
<feBlend mode="normal" in2="shape" result="effect1_innerShadow_123_14"/>
</filter>
</defs>
</svg>
