<svg width="64" height="20" viewBox="0 0 64 20" fill="none" xmlns="http://www.w3.org/2000/svg">
<g filter="url(#filter0_i_123_23)">
<rect width="64" height="20" rx="10" fill="#B8B8B8"/>
</g>
<rect x="21" y="1" width="42" height="18" rx="9" fill="white"/>
<path d="M38.0645 9.79102V10.2627C38.0645 11.0192 37.9619 11.6982 37.7568 12.2998C37.5518 12.9014 37.2624 13.4141 36.8887 13.8379C36.515 14.2572 36.0684 14.5785 35.5488 14.8018C35.0339 15.0251 34.4619 15.1367 33.833 15.1367C33.2087 15.1367 32.6367 15.0251 32.1172 14.8018C31.6022 14.5785 31.1556 14.2572 30.7773 13.8379C30.3991 13.4141 30.1051 12.9014 29.8955 12.2998C29.6904 11.6982 29.5879 11.0192 29.5879 10.2627V9.79102C29.5879 9.02995 29.6904 8.35091 29.8955 7.75391C30.1006 7.15234 30.39 6.63965 30.7637 6.21582C31.1419 5.79199 31.5885 5.46842 32.1035 5.24512C32.623 5.02181 33.195 4.91016 33.8193 4.91016C34.4482 4.91016 35.0202 5.02181 35.5352 5.24512C36.0547 5.46842 36.5013 5.79199 36.875 6.21582C37.2533 6.63965 37.5449 7.15234 37.75 7.75391C37.9596 8.35091 38.0645 9.02995 38.0645 9.79102ZM35.9932 10.2627V9.77734C35.9932 9.2487 35.9453 8.78385 35.8496 8.38281C35.7539 7.98177 35.6126 7.64453 35.4258 7.37109C35.2389 7.09766 35.0111 6.89258 34.7422 6.75586C34.4733 6.61458 34.1657 6.54395 33.8193 6.54395C33.473 6.54395 33.1654 6.61458 32.8965 6.75586C32.6322 6.89258 32.4066 7.09766 32.2197 7.37109C32.0374 7.64453 31.8984 7.98177 31.8027 8.38281C31.707 8.78385 31.6592 9.2487 31.6592 9.77734V10.2627C31.6592 10.7868 31.707 11.2516 31.8027 11.6572C31.8984 12.0583 32.0397 12.3978 32.2266 12.6758C32.4134 12.9492 32.6413 13.1566 32.9102 13.2979C33.179 13.4391 33.4867 13.5098 33.833 13.5098C34.1794 13.5098 34.487 13.4391 34.7559 13.2979C35.0247 13.1566 35.2503 12.9492 35.4326 12.6758C35.6149 12.3978 35.7539 12.0583 35.8496 11.6572C35.9453 11.2516 35.9932 10.7868 35.9932 10.2627ZM41.5918 5.04688V15H39.541V5.04688H41.5918ZM45.5566 9.29883V10.8984H41.0312V9.29883H45.5566ZM46.0352 5.04688V6.65332H41.0312V5.04688H46.0352ZM49.2754 5.04688V15H47.2246V5.04688H49.2754ZM53.2402 9.29883V10.8984H48.7148V9.29883H53.2402ZM53.7188 5.04688V6.65332H48.7148V5.04688H53.7188Z" fill="#B8B8B8"/>
<defs>
<filter id="filter0_i_123_23" x="0" y="0" width="64" height="22" filterUnits="userSpaceOnUse" color-interpolation-filters="sRGB">
<feFlood flood-opacity="0" result="BackgroundImageFix"/>
<feBlend mode="normal" in="SourceGraphic" in2="BackgroundImageFix" result="shape"/>
<feColorMatrix in="SourceAlpha" type="matrix" values="0 0 0 0 0 0 0 0 0 0 0 0 0 0 0 0 0 0 127 0" result="hardAlpha"/>
<feOffset dy="2"/>
<feGaussianBlur stdDeviation="1"/>
<feComposite in2="hardAlpha" operator="arithmetic" k2="-1" k3="1"/>
<feColorMatrix type="matrix" values="0 0 0 0 0 0 0 0 0 0 0 0 0 0 0 0 0 0 0.25 0"/>
<feBlend mode="normal" in2="shape" result="effect1_innerShadow_123_23"/>
</filter>
</defs>
</svg>
